<?xml version="1.0" standalone="no"?>
<!DOCTYPE svg PUBLIC "-//W3C//DTD SVG 20010904//EN"
 "http://www.w3.org/TR/2001/REC-SVG-20010904/DTD/svg10.dtd">
<svg version="1.0" xmlns="http://www.w3.org/2000/svg"
 width="500.000000pt" height="500.000000pt" viewBox="0 0 500.000000 500.000000"
 preserveAspectRatio="xMidYMid meet">

<g transform="translate(0.000000,500.000000) scale(0.100000,-0.100000)"
fill="#000000" stroke="none">
<path d="M2180 4934 c-452 -42 -930 -229 -1263 -494 l-82 -65 97 -3 98 -3 91
62 c500 336 1147 459 1749 333 284 -59 561 -174 795 -329 l99 -66 99 3 99 3
-89 67 c-229 173 -468 298 -731 382 -244 78 -418 106 -697 110 -121 2 -240 2
-265 0z"/>
<path d="M4070 4185 l1 -90 51 -55 c62 -66 201 -252 250 -335 164 -278 265
-562 314 -880 25 -165 25 -484 0 -650 -68 -454 -254 -858 -552 -1199 l-64 -74
0 -89 1 -88 92 96 c173 180 362 457 446 651 10 24 28 64 40 91 27 58 83 226
110 327 60 227 89 527 72 752 -20 255 -52 423 -122 632 -42 126 -46 135 -116
285 -105 226 -292 491 -467 661 l-56 54 0 -89z"/>
<path d="M1620 4004 c-224 -42 -379 -126 -507 -275 -180 -212 -191 -486 -25
-617 75 -60 140 -85 227 -90 140 -7 269 35 360 119 49 45 68 74 97 149 20 50
22 70 9 70 -19 0 -41 -33 -41 -62 0 -39 -93 -132 -170 -170 -131 -64 -237 -71
-347 -22 -77 34 -111 68 -129 131 -19 67 -6 151 38 243 41 86 185 231 282 285
254 141 532 148 908 22 133 -45 398 -158 426 -182 1 -1 -24 -42 -56 -91 -108
-164 -306 -534 -325 -605 -6 -21 -10 -22 -69 -15 -146 15 -256 18 -310 8 -73
-14 -161 -55 -209 -99 -69 -62 -125 -173 -87 -173 6 0 34 22 62 48 91 86 202
115 430 110 l138 -3 -75 -150 c-75 -148 -161 -286 -253 -408 -68 -88 -247
-265 -325 -320 -331 -234 -749 -261 -1094 -69 -153 84 -265 211 -327 366 -27
69 -32 97 -36 188 -9 221 56 359 224 484 82 60 99 80 63 69 -101 -29 -222
-132 -269 -228 -63 -129 -87 -361 -54 -523 56 -274 271 -482 585 -570 127 -35
384 -45 529 -20 263 46 465 150 646 333 119 119 204 239 287 403 76 152 90
183 153 342 l38 98 146 -6 c239 -10 470 17 470 55 0 5 -116 11 -257 14 -261 6
-323 12 -323 29 0 17 123 301 176 408 52 103 127 224 166 266 l20 22 122 -58
c145 -68 359 -145 451 -161 36 -6 65 -14 63 -18 -2 -3 -49 -98 -105 -211 -95
-192 -223 -459 -223 -465 0 -2 -18 -42 -41 -90 -37 -80 -51 -111 -104 -232
-15 -35 -24 -43 -44 -43 -38 0 -85 -33 -104 -73 -21 -44 -23 -145 -2 -173 13
-19 8 -36 -54 -190 -143 -353 -204 -564 -205 -701 -1 -83 1 -94 23 -117 32
-34 88 -50 144 -42 220 33 430 438 430 834 1 106 2 112 21 112 36 0 119 46
164 90 23 23 63 71 89 107 54 76 173 306 173 335 0 37 -25 12 -64 -63 -139
-268 -249 -398 -358 -423 -25 -6 -28 -3 -38 36 -22 85 -41 134 -64 169 l-25
36 56 124 c75 164 251 515 331 659 142 256 195 339 225 351 71 30 110 82 122
162 4 28 18 61 31 76 l24 29 -31 6 c-53 10 -128 7 -162 -8 -41 -17 -94 -78
-133 -152 l-29 -56 -61 6 c-108 11 -299 68 -477 143 -118 50 -121 55 -46 94
46 23 92 25 109 4 18 -22 40 -18 40 8 0 28 -9 41 -37 56 -52 27 -152 1 -203
-52 -14 -15 -28 -27 -32 -27 -4 0 -36 17 -70 38 -188 114 -445 219 -693 282
-96 25 -146 32 -250 35 -71 2 -141 2 -155 -1z m1443 -1873 c19 -32 48 -147 39
-155 -9 -9 -74 5 -100 22 -18 12 -23 22 -19 41 8 36 46 121 55 121 4 0 15 -13
25 -29z m7 -201 l40 0 0 -62 c0 -170 -81 -458 -172 -613 -74 -126 -145 -195
-198 -195 -65 0 -46 186 49 475 28 88 148 411 157 426 2 4 22 -1 44 -12 21
-10 57 -19 80 -19z"/>
<path d="M845 620 c3 -5 41 -36 83 -68 325 -244 676 -393 1092 -464 181 -31
569 -31 750 0 414 71 786 229 1103 470 l87 67 -100 3 -100 3 -92 -63 c-233
-156 -566 -291 -848 -342 -478 -86 -982 -21 -1413 184 -93 44 -280 152 -336
194 -32 24 -43 26 -134 26 -63 0 -96 -4 -92 -10z"/>
</g>
</svg>
